<svg xmlns="http://www.w3.org/2000/svg" xmlns:xlink="http://www.w3.org/1999/xlink" width="205.501" height="43" viewBox="0 0 205.501 43"><defs><path id="a" d="M0 0h43v43H0z"/></defs><clipPath id="b"><use xlink:href="#a" overflow="visible"/></clipPath><linearGradient id="c" gradientUnits="userSpaceOnUse" y1="43.001" x2="1" y2="43.001" gradientTransform="matrix(0 45.3908 45.3908 0 -1930.304 -1.063)"><stop offset="0" stop-color="#008053"/><stop offset=".6" stop-color="#7fc4a7"/><stop offset="1" stop-color="#00a06d"/></linearGradient><path clip-path="url(#b)" fill="url(#c)" d="M0 0h43v43H0z"/><defs><path id="d" d="M3.787 1c-.82 0-1.357.735-1.484 1.706 0 0-1.057 5.599-1.057 17.401 0 11.807 1.057 19.432 1.057 19.432.096.933.664 1.461 1.484 1.461h36.647c.819 0 1.47-.447 1.485-1.461 0 0-.408-8.847-.408-17.685s.408-19.097.408-19.097C41.938 1.852 41.253 1 40.434 1H3.787z"/></defs><clipPath id="e"><use xlink:href="#d" overflow="visible"/></clipPath><linearGradient id="f" gradientUnits="userSpaceOnUse" y1="43" x2="1" y2="43" gradientTransform="matrix(0 49.948 49.948 0 -2126.17 -10.188)"><stop offset="0" stop-color="#00a06d"/><stop offset=".3" stop-color="#7fc4a7"/><stop offset=".55" stop-color="#00a06d"/><stop offset=".835" stop-color="#008053"/><stop offset=".888" stop-color="#00885c"/><stop offset=".973" stop-color="#009e74"/><stop offset="1" stop-color="#00a67d"/></linearGradient><path clip-path="url(#e)" fill="url(#f)" d="M1.246 1h40.692v40H1.246z"/><g><defs><path id="g" d="M24.368 5.431c1.157.485 5.803 2.997 6.372 3.8-2.338.309-6.922 1.502-9.392 2.704l-.144.291c2.723-.599 6.529-.913 9.154-1.055-.98 1.437-1.629 2.122-3.12 3.748l-.138.316c2.84-1.706 3.64-1.829 6.259-3.362.989 1.463 1.226 4.833 1.265 7.505.851-1.694 1.885-8.08 1.455-9.233 1.737-1.191 1.972-2.152 1.972-2.152-1.592.138-2.47.164-3.329.435-2.034-1.246-6.698-2.893-10.219-3.29l-.135.293z"/></defs><clipPath id="h"><use xlink:href="#g" overflow="visible"/></clipPath><linearGradient id="i" gradientUnits="userSpaceOnUse" y1="43" x2="1" y2="43" gradientTransform="matrix(0 -32.5009 -32.5009 0 1427.166 37.375)"><stop offset="0" stop-color="#00ac80"/><stop offset="1" stop-color="#00a06d"/></linearGradient><path clip-path="url(#h)" fill="url(#i)" d="M21.204 5.138h16.847v14.24H21.204z"/></g><g><defs><path id="j" d="M7.025 25.27c-.23 2.129-.323 3.649-.018 5.351-.861.238-1.616.271-2.31.566l-.132.292c1.104.682 2.003 1.203 3.251 1.786.668 1.435 1.36 2.402 2.478 3.508l.136-.296c-.201-.815-.462-1.489-.364-2.382 1.388.405 2.58.619 4.161.666l.133-.295c-1.389-.539-2.78-.965-3.906-2.025.355-.984.76-1.756 1.421-2.73l.139-.3c-1.194.18-2.278.617-3.311.818-.815-1.432-1.131-3.391-1.542-5.257l-.136.298z"/></defs><clipPath id="k"><use xlink:href="#j" overflow="visible"/></clipPath><linearGradient id="l" gradientUnits="userSpaceOnUse" y1="43" x2="1" y2="43" gradientTransform="matrix(0 -32.5109 -32.5109 0 1407.437 37.375)"><stop offset="0" stop-color="#00ac80"/><stop offset="1" stop-color="#00a06d"/></linearGradient><path clip-path="url(#k)" fill="url(#l)" d="M4.565 24.972h9.795v11.801H4.565z"/></g><g><defs><path id="m" d="M14.115 15.613s-.895-.134-2.375-.089c-1.25.057-3.115.168-4.022.435l-.133.292c1.443.061 3.418.448 4.173 1.207 0 0-2.189 1.975-4.357 6.295 0 0 3.932-3.689 5.636-4.603 0 0 .892 2.973 1.512 4.459l.136-.293c.172-.955.598-3.542 1.324-5.128 0 0 .257-.145 1.514-.266 1.261-.113 3.043-.155 6.427.439l.138-.243C23.314 17.662 20.236 16 16.975 16h.107c.447-2 1.006-2.406 1.006-2.406-.691.098-2.658.97-3.973 2.019"/></defs><clipPath id="n"><use xlink:href="#m" overflow="visible"/></clipPath><linearGradient id="o" gradientUnits="userSpaceOnUse" y1="43.001" x2="1" y2="43.001" gradientTransform="matrix(0 -32.184 -32.184 0 1399.661 37.234)"><stop offset="0" stop-color="#00ac80"/><stop offset="1" stop-color="#00a06d"/></linearGradient><path clip-path="url(#n)" fill="url(#o)" d="M7.401 13.594h16.687v10.159H7.401z"/></g><g><defs><path id="p" d="M22.352 33.794a41.494 41.494 0 0 1-.115-1.717 33.207 33.207 0 0 1-2.022 2.505c-.798.222-1.71.213-2.541.204a22.402 22.402 0 0 0-.938.002l-.136.296a8.956 8.956 0 0 0 2.345.809c-.657.599-1.536 1.055-2.152 1.471l-.137.291c1.323-.313 3.064-.874 4.362-1.641a7.754 7.754 0 0 0 1.768-.105s.139-.302.139-.294c-.086-.3-.35-.482-.429-.9 1.216-.944 2.096-1.804 3.114-2.826l.141-.297c-1.005.692-2.224 1.645-3.399 2.202"/></defs><clipPath id="q"><use xlink:href="#p" overflow="visible"/></clipPath><linearGradient id="r" gradientUnits="userSpaceOnUse" y1="43" x2="1" y2="43" gradientTransform="matrix(0 -32.5005 -32.5005 0 1418.71 37.375)"><stop offset="0" stop-color="#00ac80"/><stop offset="1" stop-color="#00a06d"/></linearGradient><path clip-path="url(#q)" fill="url(#r)" d="M16.6 31.591h9.151v6.063H16.6z"/></g><g><defs><path id="s" d="M0 0h205.501v43H0z"/></defs><clipPath id="t"><use xlink:href="#s" overflow="visible"/></clipPath><path clip-path="url(#t)" fill="#FFF" d="M33.493 11.575c-2.613 1.536-3.413 1.665-6.255 3.366 1.655-1.795 2.23-2.559 3.254-4.062-2.619.139-6.426.454-9.144 1.056 2.366-1.263 7.056-2.668 9.532-3.003-.574-.792-5.221-3.309-6.377-3.794 3.679.286 8.176 1.661 10.356 2.994.858-.268 1.749-.281 3.345-.423-.406.698-.424 1.102-1.99 2.14.434 1.161-.602 7.541-1.458 9.231-.031-2.669-.265-6.04-1.263-7.505M14.36 34.466c-1.501-.557-2.583-1.204-3.773-2.317.356-.984.763-1.752 1.426-2.738-1.22.183-2.12.32-3.172.52-.856-1.498-1.244-2.944-1.68-4.957-.234 2.133-.322 3.656-.021 5.354-.966.269-1.649.503-2.443.861 1.113.681 2.012 1.205 3.254 1.785.668 1.432 1.359 2.399 2.479 3.504-.263-.941-.332-1.688-.224-2.675 1.389.402 2.578.615 4.154.663M18.27 13.244c-.468.607-1.01 1.739-1.157 2.265 3.87.525 6.975 2.512 6.975 2.512-3.384-.6-5.167-.525-6.43-.412-1.254.119-1.512.266-1.512.266-.913 2-1.461 5.435-1.461 5.435-.615-1.485-1.505-4.458-1.505-4.458-1.707.914-5.635 4.607-5.635 4.607 2.159-4.324 4.351-6.291 4.351-6.291-.754-.764-2.731-1.145-4.177-1.209.75-.306 2.676-.665 4.156-.733 1.481-.042 2.377.042 2.377.042 1.321-1.043 3.327-1.922 4.018-2.024M22.375 31.785a32.076 32.076 0 0 1-2.028 2.502 12.473 12.473 0 0 1-3.611.501 8.933 8.933 0 0 0 2.347.813 16.37 16.37 0 0 1-2.29 1.762c1.324-.313 3.063-.875 4.359-1.641.676.026 1.309-.018 1.773-.109a9.957 9.957 0 0 1-.294-1.195c1.22-.944 2.105-1.8 3.12-2.827a20.97 20.97 0 0 1-3.262 1.907 32.876 32.876 0 0 1-.114-1.713"/><path clip-path="url(#t)" fill="#231F20" d="M57.929 29c1.408 0 2.942.48 2.942 1.775 0 .703-.605 1.325-1.506 1.635 1.196.436 1.886 1.352 1.886 2.252 0 1.577-1.914 2.338-3.717 2.338h-4.123c.098-1 .127-2.613.127-4.19 0-1.039-.015-2.81-.113-3.81h4.504zm-1.154.906c-.366 0-.732.027-.914.055a58.45 58.45 0 0 0-.058 2.836c0 1.366 0 1.203.058 3.203h1.097c1.295 0 1.915-.655 1.915-1.443 0-.873-.803-1.557-1.859-1.557h-.633l.436-1h.465c.534 0 1.252-.321 1.252-1.012 0-.732-.661-1.082-1.759-1.082M69.612 29c-.07 1-.113 3.064-.113 3.809 0 .691.015 2.191.113 4.191h-1.788l-3.108-4.468c-.239-.34.284-.895-.716-1.276v2.406c0 .916.502 2.338.587 3.338h-2.041c.127-2 .141-3.529.141-4.191 0-.716-.043-2.809-.098-3.809h2.322l2.642 3.916c.127.196-.553.269.447.438V29h1.612zM75.143 29c1.647 0 3.632.439 3.632 2.198 0 1.548-1.408 2.31-4.265 2.31-.169 0-.634.227-.759.212.055 1.056.042 2.28.111 3.28h-2.491c.099-2 .127-2.965.127-4.191 0-1.083-.028-2.809-.127-3.809h3.772zm-1.365 1.003c0 .492-.027 1.001-.027 1.493 0 .365.013.646.027.916.084.012.479.012.732.012.802 0 1.915-.224 1.915-1.252 0-.999-1.141-1.184-2-1.184-.112 0-.534 0-.647.015M86.629 29c1.647 0 3.632.439 3.632 2.198 0 1.548-1.408 2.31-4.266 2.31-.169 0-.633.227-.759.212.056 1.056.042 2.28.112 3.28h-2.491c.099-2 .126-2.965.126-4.191 0-1.083-.027-2.809-.126-3.809h3.772zm-1.365 1.003c0 .492-.028 1.001-.028 1.493 0 .365.014.646.028.916.084.012.479.012.731.012.803 0 1.915-.224 1.915-1.252 0-.999-1.14-1.184-1.999-1.184-.112 0-.535 0-.647.015M94.689 29c.281 1 2.786 6 3.363 8h-2.491c-.098-1-.295-.937-.662-1.895-.379-.012-.774-.129-1.294-.129-.507 0-.874.188-1.281.202-.226.621-.423.822-.606 1.822h-2.167c.422-1 2.913-7 3.363-8h1.775zm-.212 4.721c-.295-.733-.704-1.648-.901-2.281-.211.647-.662 1.646-.886 2.281.281.013.661.027.915.027.351 0 .535-.015.872-.027M102.712 29c1.66 0 3.645.566 3.645 2.326 0 .941-.704 1.837-1.802 2.273.225.395 2.07 2.4 2.435 3.4h-2.715c-.479-1-1.394-2.724-2.295-4.062 1.083.142 2.027-.496 2.027-1.537 0-.999-1.155-1.354-1.718-1.354-.253 0-.732-.029-.901-.015a75.4 75.4 0 0 0-.056 2.766c0 .662 0 2.202.126 4.202h-2.533c.127-2 .155-2.668.155-4.191 0-1.278-.014-2.809-.127-3.809h3.759zM110.48 29c-.057 1-.098 3.093-.098 3.824 0 .676 0 2.176.098 4.176h-2.505c.126-2 .14-3.529.14-4.176 0-.717-.042-2.824-.098-3.824h2.463zM116.632 29c1.407 0 2.941.48 2.941 1.775 0 .703-.604 1.325-1.506 1.635 1.196.436 1.886 1.352 1.886 2.252 0 1.577-1.914 2.338-3.716 2.338h-4.124c.099-1 .127-2.613.127-4.19 0-1.039-.014-2.81-.112-3.81h4.504zm-1.154.906c-.366 0-.732.027-.914.055a58.51 58.51 0 0 0-.057 2.836c0 1.366 0 1.203.057 3.203h1.097c1.296 0 1.915-.655 1.915-1.443 0-.873-.803-1.557-1.858-1.557h-.634l.437-1h.465c.535 0 1.252-.321 1.252-1.012-.002-.732-.663-1.082-1.76-1.082M125.373 29c.28 1 2.787 6 3.363 8h-2.49c-.099-1-.297-.937-.662-1.895-.38-.012-.774-.129-1.295-.129-.507 0-.873.188-1.281.202-.225.62-.422.821-.605 1.821h-2.167c.422-1 2.913-7 3.363-8h1.774zm-.211 4.721c-.297-.733-.705-1.648-.901-2.281-.211.647-.662 1.646-.887 2.281.28.013.661.027.915.027.352 0 .534-.015.873-.027M132.572 28.75c.971 0 2.428.141 2.428.324v1.931c-1-.48-1.569-.889-2.653-.889-.858 0-.876.339-.876.59 0 1.282 4.341 1.295 4.341 3.591 0 1.491-1.59 2.434-3.912 2.434-1.041 0-1.899-.211-2.899-.448v-1.845c2 .746 2.641.984 3.373.984.592 0 1.13-.267 1.13-.773 0-1.449-4.294-1.309-4.294-3.772-.001-1.352 1.363-2.127 3.362-2.127M148.099 33c-.043 1-.085 2.246-.113 3.147-.816.421-2.098.621-3.336.621-2.814 0-4.617-1.791-4.617-3.974 0-2.293 1.888-4.035 4.97-4.035.704 0 1.76.108 2.505.291l-.548 1.49c-.521-.324-1.394-.593-1.985-.593-1.773 0-2.407 1.576-2.407 2.843 0 2.124 1.141 2.815 2.421 2.815.155 0 .648.062.803.02 0-.915-.015-2.626-.084-2.626h2.391zM153.348 29c1.661 0 3.646.566 3.646 2.326 0 .941-.704 1.837-1.803 2.273.227.395 2.07 2.4 2.436 3.4h-2.716c-.479-1-1.394-2.724-2.295-4.062 1.085.142 2.026-.496 2.026-1.537 0-.999-1.153-1.354-1.717-1.354-.253 0-.731-.029-.901-.015-.042.93-.055 2.261-.055 2.766 0 .662 0 2.202.125 4.202h-2.532c.126-2 .154-2.668.154-4.191 0-1.278-.015-2.809-.127-3.809h3.759zM162.16 36.745c-2.365 0-4.139-1.619-4.139-3.996 0-2.394 1.773-3.999 4.139-3.999 2.35 0 4.123 1.605 4.123 3.999 0 2.377-1.773 3.996-4.123 3.996m0-7.022c-1.099 0-1.788 1.069-1.788 3.026 0 1.954.689 2.997 1.788 2.997 1.084 0 1.76-1.043 1.76-2.997 0-1.957-.676-3.026-1.76-3.026M169.803 29c-.043 0 .197.976.197 1.51v3.617c0 .987.331 1.563 1.303 1.563.844 0 1.697-.338 1.697-1.888V30.13c0-.772-.313-1.131-.368-1.131h2.097c-.084 1 .271 1.847.271 3.072v2.153c0 1.745-1.629 2.506-4.05 2.506-2.195 0-3.95-.464-3.95-2.617V31.34c0-.704.424-2.341.34-2.341h2.463zM179.979 29c1.647 0 3.633.439 3.633 2.198 0 1.548-1.408 2.31-4.266 2.31-.17 0-.634.227-.76.212.056 1.056.042 2.28.113 3.28h-2.492c.099-2 .126-2.965.126-4.191 0-1.083-.027-2.809-.126-3.809h3.772zm-1.365 1.003c0 .492-.028 1.001-.028 1.493 0 .365.014.646.028.916.085.012.479.012.731.012.802 0 1.914-.224 1.914-1.252 0-.999-1.14-1.184-1.999-1.184-.112 0-.534 0-.646.015M57.374 7C57.29 8 57 8.718 57 9.707v7.728c0 1.385.648 2.54 2.873 2.54 1.912 0 3.127-.609 3.127-3.779V8.95c0-1.554.359-1.95.296-1.95h3.214c-.169 1-.51 3.336-.51 5.793v4.263c0 3.319-1.568 4.704-6.063 4.704-4.074 0-5.937-1.071-5.937-5.438v-4.977C54 9.916 53.531 8 53.404 7h3.97zM83.138 7c-.777 1-4.809 4.984-5.88 6.056.84 1.133 5.711 7.944 6.594 7.944h-4.641c-.967-1-3.781-5.292-5.125-6.993 0 1.764.021 5.993.211 6.993h-4.075c.21-2 .231-6.056.231-7.336 0-1.428-.083-5.664-.21-6.664h4.032c-.105 1-.189 4.894-.189 6.573C76.712 10.927 77.972 9 79.505 7h3.633zM93.046 7c3.087 0 6.762.744 6.762 4.146 0 1.911-1.113 2.901-3.318 3.573.315.629 3.864 6.281 4.452 6.281h-4.39c-.965-1-3.15-5.29-4.746-7.684.274.063.673.221 1.135.221 1.281 0 3.087-.865 3.087-2.567 0-2.12-2.563-2.469-3.844-2.469-.65 0-1.28.057-1.596.098a125.236 125.236 0 0 0-.126 4.92c0 1.301 0 5.481.231 7.481H86.6c.209-2 .252-4.312.252-7.356 0-2.563-.021-5.644-.211-6.644h6.405zM108.712 6.472c1.807 0 3.288.273 4.288.567v3.234c-1-.714-2.439-1.386-4.771-1.386-2.101 0-2.112.777-2.112 1.323 0 2.667 8.583 2.31 8.583 6.972 0 2.877-2.521 4.578-6.848 4.578-1.996 0-3.853-.357-4.853-.756v-3.212c3 1.239 4.271 1.658 5.763 1.658 1.66 0 2.515-.483 2.515-1.574 0-2.877-8.644-2.458-8.644-7.351.001-2.583 2.362-4.053 6.079-4.053M122.166 7c-.126 1-.21 5.215-.21 6.664 0 1.28.021 5.336.21 7.336h-4.073c.21-2 .23-6.056.23-7.336 0-1.428-.084-5.664-.189-6.664h4.032zM133.567 7c2.625 0 5.397.849 5.397 3.285 0 1.471-1.239 2.714-3.108 3.197 2.541.777 3.865 1.88 3.865 3.749 0 2.982-3.529 3.769-6.889 3.769h-6.825c.189-1 .231-4.353.231-7.356 0-2.017-.021-4.644-.211-6.644h7.54zM131.3 8.404c-.483 0-1.029.042-1.302.084-.084 1.953-.127 3.003-.127 5.272 0 2.666 0 3.78.104 5.943.483.021 1.261.021 1.702.021 2.836 0 4.242-.64 4.242-2.279 0-1.931-2.331-2.445-4.095-2.445h-.819l.819-2h.504c1.196 0 2.897-.764 2.897-2.235.002-1.554-1.048-2.361-3.925-2.361M149.924 7c2.625 0 5.396.849 5.396 3.285 0 1.471-1.239 2.714-3.107 3.197 2.541.777 3.863 1.88 3.863 3.749 0 2.982-3.527 3.769-6.889 3.769h-6.824c.189-1 .231-4.353.231-7.356 0-2.017-.021-4.644-.211-6.644h7.541zm-2.269 1.404c-.482 0-1.028.042-1.302.084-.084 1.953-.127 3.003-.127 5.272 0 2.666 0 3.78.104 5.943.483.021 1.262.021 1.701.021 2.837 0 4.243-.64 4.243-2.279 0-1.931-2.331-2.445-4.095-2.445h-.819l.819-2h.504c1.196 0 2.897-.764 2.897-2.235.002-1.554-1.048-2.361-3.925-2.361M166.447 7c.567 1 5.397 12 6.531 14h-4.054c-.23 0-.713-1.657-1.344-3.232-.84-.021-1.7.074-2.897.074-1.114 0-1.954-.153-2.92-.132-.462 1.239-.84 2.29-1.176 3.29h-3.528c.84-1 5.776-12 6.552-14h2.836zm.357 9.07a738.116 738.116 0 0 0-2.101-4.978 121.894 121.894 0 0 0-2.184 4.978c.63.02 1.491.041 2.184.041.673 0 1.387-.021 2.101-.041M188.137 7c-.146 1-.23 5.215-.23 6.644 0 1.3.02 5.356.252 7.356h-2.751l-6.302-9.028c-.545-.819-.692-1.122-.797-1.5 0 2.247-.021 3.185-.021 5.18 0 1.805.042 4.348.188 5.348h-3.423c.21-2 .232-6.056.232-7.356 0-1.429-.084-5.644-.189-6.644h3.863l4.705 6.789c1.008 1.471 1.218 1.211 1.385 2.211h.022c-.127-2-.168-3.597-.252-5.424L184.672 7h3.465zM204.787 7c-.778 1-4.81 4.984-5.881 6.056.841 1.133 5.712 7.944 6.595 7.944h-4.641c-.967-1-3.781-5.292-5.126-6.993 0 1.764.021 5.993.211 6.993h-4.074c.21-2 .231-6.056.231-7.336 0-1.428-.083-5.664-.21-6.664h4.031c-.104 1-.189 4.894-.189 6.573C198.36 10.927 199.621 9 201.153 7h3.634z"/></g></svg>